<?xml version="1.0" encoding="UTF-8" standalone="no"?>
<!-- Created with Inkscape (http://www.inkscape.org/) -->

<svg
   version="1.1"
   id="svg2"
   width="1344"
   height="816"
   viewBox="380 285 620 220"
   xmlns="http://www.w3.org/2000/svg"
   xmlns:svg="http://www.w3.org/2000/svg">
  <defs
     id="defs6">
    <clipPath
       clipPathUnits="userSpaceOnUse"
       id="clipPath16">
      <path
         d="M 0,612 H 1008 V 0 H 0 Z"
         id="path14" />
    </clipPath>
  </defs>
  <g
     id="g8"
     transform="matrix(1.3333333,0,0,-1.3333333,0,816)">
    <g
       id="g10">
      <g
         id="g12"
         clip-path="url(#clipPath16)">
        <g
           id="g18"
           transform="translate(441.1391,322.5133)">
          <path
             d="m 0,0 h 11.168 c 6.675,0 10.013,5.221 10.013,10.441 0,5.263 -3.338,10.484 -10.013,10.484 H 0 Z M 11.383,25.418 C 21.566,25.332 26.659,17.887 26.659,10.441 26.659,2.996 21.566,-4.45 11.383,-4.536 H -5.221 v 29.954 z"
             style="fill:#004f51;fill-opacity:1;fill-rule:nonzero;stroke:none"
             id="path20" />
        </g>
        <path
           d="m 476.526,347.953 h 5.22 v -29.954 h -5.22 z"
           style="fill:#004f51;fill-opacity:1;fill-rule:nonzero;stroke:none"
           id="path22" />
        <g
           id="g24"
           transform="translate(516.6188,322.4705)">
          <path
             d="M 0,0 V -4.493 H -26.702 V 25.461 H -0.256 V 20.968 H -21.482 V 12.751 H -3.167 V 8.259 H -21.482 V 0 Z"
             style="fill:#004f51;fill-opacity:1;fill-rule:nonzero;stroke:none"
             id="path26" />
        </g>
        <g
           id="g28"
           transform="translate(549.9944,322.4705)">
          <path
             d="M 0,0 V -4.493 H -26.102 V 0 l 18.87,20.968 h -18.485 v 4.493 H -1.454 V 20.968 L -20.069,0 Z"
             style="fill:#004f51;fill-opacity:1;fill-rule:nonzero;stroke:none"
             id="path30" />
        </g>
        <g
           id="g32"
           transform="translate(441.1391,283.5017)">
          <path
             d="m 0,0 h 12.452 c 3.252,0 4.879,2.225 4.879,4.451 0,2.182 -1.627,4.407 -4.879,4.407 H 0 Z m 0,13.009 h 9.756 c 3.252,0 4.879,2.054 4.879,4.151 0,2.096 -1.627,4.193 -4.879,4.193 H 0 Z m -5.221,12.538 h 15.79 c 6.248,0 9.372,-4.151 9.372,-8.345 0,-1.968 -0.685,-3.894 -2.098,-5.434 3.125,-1.627 4.665,-4.664 4.665,-7.703 0,-4.279 -3.124,-8.472 -9.242,-8.472 H -5.221 Z"
             style="fill:#004f51;fill-opacity:1;fill-rule:nonzero;stroke:none"
             id="path34" />
        </g>
        <g
           id="g36"
           transform="translate(476.3231,295.6543)">
          <path
             d="m 0,0 h 11.425 c 3.466,0 5.221,2.183 5.221,4.408 0,2.225 -1.755,4.45 -5.221,4.45 H 0 Z m -5.221,13.394 h 17.587 c 6.505,0 9.714,-4.493 9.714,-8.986 0,-3.68 -2.182,-7.36 -6.59,-8.558 l 9.799,-12.41 h -6.59 L 9.756,-4.535 H 0 V -16.56 h -5.221 z"
             style="fill:#004f51;fill-opacity:1;fill-rule:nonzero;stroke:none"
             id="path38" />
        </g>
        <g
           id="g40"
           transform="translate(522.6102,304.9404)">
          <path
             d="m 0,0 c -5.307,0 -11.554,-3.595 -11.554,-10.869 0,-7.274 6.247,-10.869 11.554,-10.869 5.349,0 11.596,3.595 11.596,10.869 C 11.596,-3.595 5.349,0 0,0 m 0,-26.659 c -7.788,0 -16.903,5.177 -16.903,15.79 0,10.612 9.115,15.79 16.903,15.79 7.83,0 16.945,-5.178 16.945,-15.79 0,-10.613 -9.115,-15.79 -16.945,-15.79"
             style="fill:#004f51;fill-opacity:1;fill-rule:nonzero;stroke:none"
             id="path42" />
        </g>
        <g
           id="g44"
           transform="translate(547.0521,309.0484)">
          <path
             d="M 0,0 H 5.22 V -14.892 L 21.181,0 h 6.89 L 13.565,-13.822 30.767,-29.954 H 23.664 L 10.142,-17.116 5.22,-21.781 v -8.173 H 0 Z"
             style="fill:#004f51;fill-opacity:1;fill-rule:nonzero;stroke:none"
             id="path46" />
        </g>
        <g
           id="g48"
           transform="translate(611.7506,283.5875)">
          <path
             d="M 0,0 V -4.493 H -26.702 V 25.461 H -0.256 V 20.967 H -21.482 V 12.751 H -3.167 V 8.259 H -21.482 V 0 Z"
             style="fill:#004f51;fill-opacity:1;fill-rule:nonzero;stroke:none"
             id="path50" />
        </g>
        <g
           id="g52"
           transform="translate(624.9279,295.6543)">
          <path
             d="m 0,0 h 11.425 c 3.467,0 5.221,2.183 5.221,4.408 0,2.225 -1.754,4.45 -5.221,4.45 H 0 Z m -5.22,13.394 h 17.587 c 6.504,0 9.714,-4.493 9.714,-8.986 0,-3.68 -2.182,-7.36 -6.59,-8.558 L 25.29,-16.56 H 18.7 L 9.757,-4.535 H 0 V -16.56 h -5.22 z"
             style="fill:#004f51;fill-opacity:1;fill-rule:nonzero;stroke:none"
             id="path54" />
        </g>
        <g
           id="g56"
           transform="translate(681.2834,301.4313)">
          <path
             d="m 0,0 c -2.311,2.183 -7.189,3.594 -11.425,3.594 -4.151,0 -7.66,-1.326 -7.66,-4.45 0,-6.632 22.166,-1.283 22.166,-13.308 0,-6.419 -6.89,-9.114 -14.121,-9.114 -5.82,0 -11.939,1.711 -14.977,4.664 l 2.952,4.065 c 2.311,-2.439 7.702,-3.936 12.41,-3.936 4.365,0 8.13,1.283 8.13,4.278 0,7.018 -22.123,1.584 -22.123,13.437 0,6.547 6.29,9.157 13.094,9.157 5.434,0 11.211,-1.669 14.378,-4.322 z"
             style="fill:#004f51;fill-opacity:1;fill-rule:nonzero;stroke:none"
             id="path58" />
        </g>
        <g
           id="g60"
           transform="translate(698.1309,312.2079)">
          <path
             d="M 0,0 H 0.664 C 1.439,0 2.066,0.255 2.066,0.883 2.066,1.436 1.661,1.805 0.775,1.805 0.405,1.805 0.147,1.769 0,1.733 Z m -0.036,-3.433 h -1.403 v 6.049 c 0.553,0.111 1.328,0.186 2.325,0.186 1.144,0 1.658,-0.186 2.102,-0.441 C 3.319,2.102 3.577,1.622 3.577,1.03 3.577,0.366 3.061,-0.15 2.325,-0.369 V -0.445 C 2.913,-0.667 3.247,-1.108 3.43,-1.919 3.616,-2.841 3.724,-3.211 3.875,-3.433 H 2.361 C 2.178,-3.211 2.066,-2.658 1.88,-1.955 1.772,-1.292 1.403,-0.997 0.628,-0.997 h -0.664 z m -3.727,3.175 c 0,-2.694 1.994,-4.833 4.721,-4.833 2.658,0 4.61,2.139 4.61,4.794 0,2.694 -1.952,4.868 -4.646,4.868 -2.691,0 -4.685,-2.174 -4.685,-4.829 m 10.881,0 c 0,-3.433 -2.691,-6.124 -6.196,-6.124 -3.466,0 -6.232,2.691 -6.232,6.124 0,3.355 2.766,6.049 6.232,6.049 3.505,0 6.196,-2.694 6.196,-6.049"
             style="fill:#004f51;fill-opacity:1;fill-rule:nonzero;stroke:none"
             id="path62" />
        </g>
        <g
           id="g64"
           transform="translate(448.3583,262.478)">
          <path
             d="m 0,0 c 0.378,0.307 0.567,0.751 0.567,1.332 0,1.28 -0.799,1.921 -2.399,1.921 H -8.584 V -0.46 h 6.928 c 0.724,0 1.277,0.153 1.656,0.46 m 0.407,-6.604 -3.136,4.416 h -5.855 v -4.416 h -1.921 V 4.98 h 9.137 C -0.142,4.98 0.815,4.655 1.504,4.005 2.191,3.354 2.535,2.463 2.535,1.332 2.535,0.82 2.461,0.367 2.312,-0.027 2.162,-0.422 1.951,-0.761 1.68,-1.044 1.407,-1.326 1.088,-1.553 0.72,-1.724 0.352,-1.895 -0.046,-2.017 -0.473,-2.092 l 3.105,-4.512 z"
             style="fill:#004f51;fill-opacity:1;fill-rule:nonzero;stroke:none"
             id="path66" />
        </g>
        <g
           id="g68"
           transform="translate(439.8739,262.1176)">
          <path
             d="m 0,0 h 6.828 c 0.698,0 1.235,0.147 1.593,0.438 0.352,0.286 0.531,0.708 0.531,1.254 0,1.226 -0.753,1.822 -2.3,1.822 L 0,3.514 Z m 6.828,-0.199 h -7.027 v 3.912 h 6.851 c 1.659,0 2.499,-0.68 2.499,-2.021 0,-0.61 -0.203,-1.084 -0.603,-1.41 H 8.547 C 8.152,-0.037 7.573,-0.199 6.828,-0.199 m 2.115,-5.945 h 1.983 l -3.085,4.484 0.153,0.027 c 0.419,0.073 0.812,0.196 1.168,0.361 0.354,0.164 0.667,0.385 0.93,0.658 0.262,0.272 0.467,0.603 0.61,0.982 0.145,0.381 0.218,0.826 0.218,1.324 0,1.097 -0.337,1.972 -1,2.601 C 9.254,4.922 8.311,5.241 7.116,5.241 H -1.921 V -6.144 h 1.722 v 4.416 H 5.808 L 5.837,-1.77 Z m 2.364,-0.199 H 8.84 L 8.811,-6.301 5.704,-1.927 H 0 V -6.343 H -2.12 V 5.44 H 7.116 C 8.363,5.44 9.353,5.104 10.057,4.437 10.762,3.77 11.119,2.846 11.119,1.692 11.119,1.17 11.042,0.701 10.89,0.298 10.736,-0.107 10.517,-0.461 10.236,-0.753 9.956,-1.043 9.623,-1.279 9.246,-1.454 8.918,-1.606 8.56,-1.723 8.181,-1.801 Z"
             style="fill:#004f51;fill-opacity:1;fill-rule:nonzero;stroke:none"
             id="path70" />
        </g>
        <g
           id="g72"
           transform="translate(463.9012,255.8745)">
          <path
             d="M 0,0 V 11.584 H 11.681 V 9.856 H 1.921 V 6.864 H 8.704 V 5.136 H 1.921 V 1.728 h 10.208 l 0,-1.728 z"
             style="fill:#004f51;fill-opacity:1;fill-rule:nonzero;stroke:none"
             id="path74" />
        </g>
        <g
           id="g76"
           transform="translate(464.0009,255.9741)">
          <path
             d="M 0,0 H 11.93 V 1.528 H 1.722 V 5.136 H 8.505 V 6.665 H 1.722 v 3.191 h 9.759 v 1.529 H 0 Z M 12.129,-0.199 H -0.199 v 11.783 h 11.88 V 9.657 H 1.921 V 6.864 H 8.704 V 4.937 H 1.921 V 1.728 h 10.208 z"
             style="fill:#004f51;fill-opacity:1;fill-rule:nonzero;stroke:none"
             id="path78" />
        </g>
        <g
           id="g80"
           transform="translate(494.8612,265.7944)">
          <path
             d="M 0,0 -2.96,-5.6 H 2.944 Z M 5.232,-9.92 3.888,-7.328 H -3.904 L -5.248,-9.92 H -7.344 L -1.216,1.664 H 1.2 L 7.328,-9.92 Z"
             style="fill:#004f51;fill-opacity:1;fill-rule:nonzero;stroke:none"
             id="path82" />
        </g>
        <g
           id="g84"
           transform="translate(492.0673,260.2944)">
          <path
             d="M 0,0 H 5.572 L 2.794,5.285 Z M 5.904,-0.199 H -0.332 L 2.794,5.715 2.883,5.547 Z M 8.087,-4.32 H 9.956 L 3.934,7.064 H 1.639 L -4.384,-4.32 h 1.869 l 1.344,2.591 h 7.913 l 0.029,-0.053 z m 2.201,-0.2 H 7.966 L 7.937,-4.466 6.621,-1.928 H -1.05 L -2.394,-4.52 h -2.322 l 0.077,0.147 6.157,11.637 H 4.055 L 4.083,7.211 Z"
             style="fill:#004f51;fill-opacity:1;fill-rule:nonzero;stroke:none"
             id="path86" />
        </g>
        <g
           id="g88"
           transform="translate(514.1571,255.8745)">
          <path
             d="m 0,0 v 11.568 h 1.921 v -9.84 h 8.943 l 0,-1.728 z"
             style="fill:#004f51;fill-opacity:1;fill-rule:nonzero;stroke:none"
             id="path90" />
        </g>
        <g
           id="g92"
           transform="translate(514.2567,255.9741)">
          <path
             d="M 0,0 H 10.665 V 1.528 H 1.722 v 9.841 H 0 Z M 10.864,-0.199 H -0.199 v 11.767 h 2.12 v -9.84 h 8.943 z"
             style="fill:#004f51;fill-opacity:1;fill-rule:nonzero;stroke:none"
             id="path94" />
        </g>
        <g
           id="g96"
           transform="translate(551.9169,255.8745)">
          <path
             d="M 0,0 V 11.584 H 11.681 V 9.856 H 1.921 V 6.864 H 8.704 V 5.136 H 1.921 V 1.728 h 10.208 l 0,-1.728 z"
             style="fill:#004f51;fill-opacity:1;fill-rule:nonzero;stroke:none"
             id="path98" />
        </g>
        <g
           id="g100"
           transform="translate(552.0165,255.9741)">
          <path
             d="M 0,0 H 11.93 V 1.528 H 1.722 V 5.136 H 8.505 V 6.665 H 1.722 v 3.191 h 9.759 v 1.529 H 0 Z M 12.129,-0.199 H -0.199 v 11.783 h 11.88 V 9.657 H 1.921 V 6.864 H 8.704 V 4.937 H 1.921 V 1.728 h 10.208 z"
             style="fill:#004f51;fill-opacity:1;fill-rule:nonzero;stroke:none"
             id="path102" />
        </g>
        <g
           id="g104"
           transform="translate(583.8768,265.7309)">
          <path
             d="m 0,0 c -0.858,0.213 -1.747,0.319 -2.664,0.319 -1.205,0 -2.117,-0.141 -2.736,-0.423 -0.619,-0.283 -0.928,-0.665 -0.928,-1.144 0,-0.513 0.336,-0.886 1.008,-1.12 0.32,-0.118 0.674,-0.2 1.064,-0.248 0.389,-0.048 0.816,-0.086 1.279,-0.113 0.465,-0.026 0.963,-0.055 1.497,-0.087 0.533,-0.033 1.093,-0.086 1.68,-0.161 1.45,-0.181 2.523,-0.533 3.216,-1.055 0.693,-0.524 1.04,-1.27 1.04,-2.24 0,-1.227 -0.536,-2.176 -1.608,-2.848 -1.072,-0.672 -2.643,-1.009 -4.712,-1.009 -1.483,0 -2.792,0.158 -3.928,0.473 -1.136,0.314 -2.126,0.807 -2.968,1.479 l 1.056,1.393 c 0.938,-0.576 1.883,-0.998 2.832,-1.265 0.949,-0.266 1.957,-0.399 3.024,-0.399 1.386,0 2.437,0.183 3.152,0.552 0.715,0.368 1.072,0.866 1.072,1.496 0,0.416 -0.12,0.736 -0.36,0.96 -0.24,0.223 -0.589,0.394 -1.048,0.511 -0.459,0.117 -1.022,0.2 -1.688,0.248 -0.667,0.048 -1.426,0.099 -2.28,0.153 -0.896,0.063 -1.678,0.152 -2.344,0.263 -0.667,0.113 -1.224,0.281 -1.672,0.504 -0.448,0.225 -0.784,0.518 -1.008,0.88 -0.224,0.363 -0.336,0.821 -0.336,1.376 0,1.089 0.502,1.947 1.504,2.576 1.002,0.63 2.448,0.945 4.335,0.945 2.497,0 4.587,-0.572 6.273,-1.712 L 2.584,-0.992 C 1.72,-0.545 0.858,-0.214 0,0"
             style="fill:#004f51;fill-opacity:1;fill-rule:nonzero;stroke:none"
             id="path106" />
        </g>
        <g
           id="g108"
           transform="translate(575.2557,257.5717)">
          <path
             d="m 0,0 c 0.812,-0.629 1.771,-1.101 2.855,-1.4 1.124,-0.312 2.437,-0.47 3.902,-0.47 2.04,0 3.607,0.335 4.659,0.994 1.036,0.649 1.562,1.578 1.562,2.763 0,0.932 -0.337,1.659 -1.001,2.16 C 11.302,4.556 10.235,4.904 8.809,5.083 8.222,5.157 7.659,5.211 7.135,5.243 6.602,5.275 6.104,5.305 5.639,5.331 5.185,5.356 4.752,5.395 4.353,5.443 3.955,5.492 3.59,5.578 3.267,5.697 2.555,5.945 2.193,6.354 2.193,6.911 c 0,0.521 0.331,0.936 0.986,1.235 0.631,0.287 1.565,0.432 2.778,0.432 0.922,0 1.826,-0.108 2.689,-0.322 0.837,-0.208 1.691,-0.533 2.537,-0.965 l 1.039,1.153 C 10.575,9.526 8.517,10.075 6.101,10.075 4.24,10.075 2.8,9.763 1.817,9.146 0.851,8.539 0.36,7.7 0.36,6.654 0.36,6.122 0.469,5.677 0.682,5.331 0.896,4.986 1.221,4.703 1.65,4.488 2.086,4.27 2.64,4.104 3.294,3.993 3.964,3.881 4.749,3.793 5.628,3.73 6.481,3.677 7.241,3.626 7.908,3.578 8.575,3.53 9.149,3.446 9.613,3.327 10.087,3.206 10.454,3.026 10.705,2.792 10.965,2.55 11.097,2.202 11.097,1.759 11.097,1.092 10.718,0.559 9.971,0.174 9.245,-0.199 8.17,-0.389 6.773,-0.389 5.701,-0.389 4.675,-0.254 3.722,0.014 2.795,0.274 1.86,0.687 0.942,1.242 Z m 6.757,-2.069 c -1.483,0 -2.813,0.16 -3.954,0.475 -1.146,0.318 -2.157,0.822 -3.004,1.498 L -0.277,-0.035 0.892,1.508 0.97,1.46 C 1.896,0.892 2.841,0.47 3.776,0.207 4.711,-0.056 5.72,-0.189 6.773,-0.189 c 1.365,0 2.41,0.182 3.106,0.541 0.685,0.352 1.018,0.813 1.018,1.407 0,0.386 -0.111,0.683 -0.329,0.887 C 10.343,2.857 10.005,3.021 9.564,3.134 9.111,3.249 8.55,3.332 7.895,3.379 7.228,3.427 6.468,3.478 5.615,3.531 4.729,3.594 3.937,3.683 3.261,3.796 2.587,3.909 2.015,4.082 1.561,4.309 1.098,4.541 0.745,4.85 0.512,5.226 0.278,5.604 0.161,6.085 0.161,6.654 c 0,1.12 0.522,2.015 1.551,2.661 1.014,0.637 2.49,0.959 4.389,0.959 2.503,0 4.632,-0.581 6.328,-1.728 L 12.524,8.481 11.228,7.043 11.159,7.078 C 10.305,7.521 9.442,7.852 8.597,8.063 7.751,8.272 6.862,8.379 5.957,8.379 4.772,8.379 3.866,8.239 3.262,7.964 2.678,7.696 2.393,7.353 2.393,6.911 2.393,6.441 2.701,6.106 3.334,5.886 3.645,5.771 3.995,5.689 4.377,5.643 4.771,5.594 5.2,5.556 5.65,5.53 6.115,5.504 6.613,5.475 7.146,5.442 7.675,5.41 8.243,5.356 8.834,5.282 c 1.462,-0.183 2.56,-0.545 3.264,-1.075 0.715,-0.541 1.079,-1.321 1.079,-2.32 0,-1.258 -0.557,-2.244 -1.656,-2.933 -1.083,-0.68 -2.686,-1.023 -4.764,-1.023"
             style="fill:#004f51;fill-opacity:1;fill-rule:nonzero;stroke:none"
             id="path110" />
        </g>
        <g
           id="g112"
           transform="translate(606.0936,265.7309)">
          <path
             d="M 0,0 V -9.856 H -1.92 V 0 H -7.456 V 1.728 H 5.535 V 0 Z"
             style="fill:#004f51;fill-opacity:1;fill-rule:nonzero;stroke:none"
             id="path114" />
        </g>
        <g
           id="g116"
           transform="translate(604.2733,255.9741)">
          <path
             d="m 0,0 h 1.721 v 9.856 h 5.535 v 1.529 H -5.536 V 9.856 H 0 Z m 1.92,-0.199 h -2.119 v 9.856 h -5.536 v 1.927 H 7.455 V 9.657 H 1.92 Z"
             style="fill:#004f51;fill-opacity:1;fill-rule:nonzero;stroke:none"
             id="path118" />
        </g>
        <g
           id="g120"
           transform="translate(627.5331,265.7944)">
          <path
             d="M 0,0 -2.96,-5.6 H 2.944 Z M 5.232,-9.92 3.888,-7.328 H -3.904 L -5.248,-9.92 H -7.344 L -1.216,1.664 H 1.2 L 7.328,-9.92 Z"
             style="fill:#004f51;fill-opacity:1;fill-rule:nonzero;stroke:none"
             id="path122" />
        </g>
        <g
           id="g124"
           transform="translate(624.7391,260.2944)">
          <path
             d="M 0,0 H 5.572 L 2.794,5.285 Z M 5.904,-0.199 H -0.332 L 2.794,5.715 2.883,5.547 Z M 8.087,-4.32 H 9.956 L 3.934,7.064 H 1.639 L -4.384,-4.32 h 1.869 l 1.344,2.591 h 7.913 l 0.029,-0.053 z m 2.201,-0.2 H 7.966 L 7.937,-4.466 6.621,-1.928 H -1.05 L -2.394,-4.52 h -2.322 l 0.077,0.147 6.157,11.637 H 4.055 L 4.083,7.211 Z"
             style="fill:#004f51;fill-opacity:1;fill-rule:nonzero;stroke:none"
             id="path126" />
        </g>
        <g
           id="g128"
           transform="translate(650.8778,265.7309)">
          <path
             d="M 0,0 V -9.856 H -1.92 V 0 H -7.456 V 1.728 H 5.535 V 0 Z"
             style="fill:#004f51;fill-opacity:1;fill-rule:nonzero;stroke:none"
             id="path130" />
        </g>
        <g
           id="g132"
           transform="translate(649.0575,255.9741)">
          <path
             d="m 0,0 h 1.721 v 9.856 h 5.535 v 1.529 H -5.536 V 9.856 H 0 Z m 1.92,-0.199 h -2.119 v 9.856 h -5.536 v 1.927 H 7.455 V 9.657 H 1.92 Z"
             style="fill:#004f51;fill-opacity:1;fill-rule:nonzero;stroke:none"
             id="path134" />
        </g>
        <g
           id="g136"
           transform="translate(668.3485,255.8745)">
          <path
             d="M 0,0 V 11.584 H 11.681 V 9.856 H 1.921 V 6.864 H 8.704 V 5.136 H 1.921 V 1.728 h 10.208 l 0,-1.728 z"
             style="fill:#004f51;fill-opacity:1;fill-rule:nonzero;stroke:none"
             id="path138" />
        </g>
        <g
           id="g140"
           transform="translate(668.4481,255.9741)">
          <path
             d="M 0,0 H 11.93 V 1.528 H 1.722 V 5.136 H 8.505 V 6.665 H 1.722 v 3.191 h 9.759 v 1.529 H 0 Z M 12.129,-0.199 H -0.199 v 11.783 h 11.88 V 9.657 H 1.921 V 6.864 H 8.704 V 4.937 H 1.921 V 1.728 h 10.208 z"
             style="fill:#004f51;fill-opacity:1;fill-rule:nonzero;stroke:none"
             id="path142" />
        </g>
        <g
           id="g144"
           transform="translate(317.3719,375.4164)">
          <path
             d="m 0,0 v -51.93 l 32.732,18.898 c 0.689,0.396 1.541,0.396 2.224,0 l 16.487,-9.519 v 16.289 z m -14.121,-111.162 11.621,-6.71 v 61.612 l -11.621,-6.709 z m 68.064,64.281 v -80.369 l 27.867,16.088 v 48.193 z m -0.468,-83.527 -0.771,1.335 h -1.261 v 83.635 L 33.844,-35.276 0,-54.816 v -63.536 c 0,-0.802 -0.415,-1.522 -1.11,-1.924 -0.696,-0.402 -1.527,-0.403 -2.224,-0.001 l -12.176,7.029 c -0.685,0.396 -1.111,1.135 -1.111,1.926 v 48.512 c 0,0.792 0.426,1.529 1.111,1.925 l 13.01,7.512 V 0.452 c 0,0.78 0.397,1.488 1.063,1.896 0.665,0.406 1.474,0.441 2.171,0.084 L 52.73,-24.112 c 0.749,-0.382 1.213,-1.141 1.213,-1.981 v -17.901 l 29.255,-16.89 c 0.686,-0.395 1.112,-1.133 1.112,-1.926 v -48.512 c 0,-0.793 -0.426,-1.531 -1.113,-1.926 z"
             style="fill:#004f51;fill-opacity:1;fill-rule:nonzero;stroke:none"
             id="path146" />
        </g>
        <g
           id="g148"
           transform="translate(381.9237,254.2885)">
          <path
             d="m 0,0 c -0.001,0 -0.001,-0.001 -0.002,-0.001 z m -37.58,-13.856 6.871,-3.985 30.57,17.761 V 55.645 L -37.58,34.987 Z m 6.872,-6.527 c -0.385,0 -0.77,0.099 -1.113,0.298 l -7.151,4.146 c -0.683,0.394 -1.108,1.131 -1.108,1.922 v 49.168 c 0,0.811 0.44,1.557 1.15,1.947 L -0.936,58.06 c 0.695,0.384 1.518,0.372 2.205,-0.032 0.684,-0.404 1.092,-1.119 1.092,-1.914 V -0.24 c 0,-0.789 -0.424,-1.526 -1.106,-1.922 l -30.846,-17.921 c -0.345,-0.2 -0.731,-0.3 -1.117,-0.3"
             style="fill:#004f51;fill-opacity:1;fill-rule:nonzero;stroke:none"
             id="path150" />
        </g>
      </g>
    </g>
  </g>
</svg>
