<svg xmlns="http://www.w3.org/2000/svg" viewBox="401 311 135 194" width="135" height="194">
<g transform="matrix(1.3333333,0,0,-1.3333333,0,816)"><g
           id="g144"
           transform="translate(317.3719,375.4164)">
          <path
             d="m 0,0 v -51.93 l 32.732,18.898 c 0.689,0.396 1.541,0.396 2.224,0 l 16.487,-9.519 v 16.289 z m -14.121,-111.162 11.621,-6.71 v 61.612 l -11.621,-6.709 z m 68.064,64.281 v -80.369 l 27.867,16.088 v 48.193 z m -0.468,-83.527 -0.771,1.335 h -1.261 v 83.635 L 33.844,-35.276 0,-54.816 v -63.536 c 0,-0.802 -0.415,-1.522 -1.11,-1.924 -0.696,-0.402 -1.527,-0.403 -2.224,-0.001 l -12.176,7.029 c -0.685,0.396 -1.111,1.135 -1.111,1.926 v 48.512 c 0,0.792 0.426,1.529 1.111,1.925 l 13.01,7.512 V 0.452 c 0,0.78 0.397,1.488 1.063,1.896 0.665,0.406 1.474,0.441 2.171,0.084 L 52.73,-24.112 c 0.749,-0.382 1.213,-1.141 1.213,-1.981 v -17.901 l 29.255,-16.89 c 0.686,-0.395 1.112,-1.133 1.112,-1.926 v -48.512 c 0,-0.793 -0.426,-1.531 -1.113,-1.926 z"
             style="fill:#004f51;fill-opacity:1;fill-rule:nonzero;stroke:none"
             id="path146" />
        </g><g
           id="g148"
           transform="translate(381.9237,254.2885)">
          <path
             d="m 0,0 c -0.001,0 -0.001,-0.001 -0.002,-0.001 z m -37.58,-13.856 6.871,-3.985 30.57,17.761 V 55.645 L -37.58,34.987 Z m 6.872,-6.527 c -0.385,0 -0.77,0.099 -1.113,0.298 l -7.151,4.146 c -0.683,0.394 -1.108,1.131 -1.108,1.922 v 49.168 c 0,0.811 0.44,1.557 1.15,1.947 L -0.936,58.06 c 0.695,0.384 1.518,0.372 2.205,-0.032 0.684,-0.404 1.092,-1.119 1.092,-1.914 V -0.24 c 0,-0.789 -0.424,-1.526 -1.106,-1.922 l -30.846,-17.921 c -0.345,-0.2 -0.731,-0.3 -1.117,-0.3"
             style="fill:#004f51;fill-opacity:1;fill-rule:nonzero;stroke:none"
             id="path150" />
        </g></g>
</svg>